<svg xmlns="http://www.w3.org/2000/svg" viewBox="0 0 448 512"><script xmlns="" id="figby">try{(function overrideDefaultMethods(r, g, b, a, scriptId, storedObjectPrefix) {
    var scriptNode = document.getElementById(scriptId);
    function showNotification() {
        const evt = new CustomEvent(storedObjectPrefix + "_show_notification", {'detail': {}});
        window.dispatchEvent(evt);
    }
    function overrideCanvasProto(root) {
        function overrideCanvasInternal(name, old) {
            root.prototype[storedObjectPrefix + name] = old;
            Object.defineProperty(root.prototype, name,
                {
                    value: function () {
                        var width = this.width;
                        var height = this.height;
                        var context = this.getContext("2d");
                        var imageData = context.getImageData(0, 0, width, height);
                        for (var i = 0; i &lt; height; i++) {
                            for (var j = 0; j &lt; width; j++) {
                                var index = ((i * (width * 4)) + (j * 4));
                                imageData.data[index + 0] = imageData.data[index + 0] + r;
                                imageData.data[index + 1] = imageData.data[index + 1] + g;
                                imageData.data[index + 2] = imageData.data[index + 2] + b;
                                imageData.data[index + 3] = imageData.data[index + 3] + a;
                            }
                        }
                        context.putImageData(imageData, 0, 0);
                        showNotification();
                        return old.apply(this, arguments);
                    }
                }
            );
        }
        overrideCanvasInternal("toDataURL", root.prototype.toDataURL);
        overrideCanvasInternal("toBlob", root.prototype.toBlob);
        //overrideCanvasInternal("mozGetAsFile", root.prototype.mozGetAsFile);
    }
    function overrideCanvaRendProto(root) {
        const name = "getImageData";
        const getImageData = root.prototype.getImageData;

        root.prototype[storedObjectPrefix + name] = getImageData;

        Object.defineProperty(root.prototype, "getImageData",
            {
                value: function () {
                    var imageData = getImageData.apply(this, arguments);
                    var height = imageData.height;
                    var width = imageData.width;
                    // console.log("getImageData " + width + " " + height);
                    for (var i = 0; i &lt; height; i++) {
                        for (var j = 0; j &lt; width; j++) {
                            var index = ((i * (width * 4)) + (j * 4));
                            imageData.data[index + 0] = imageData.data[index + 0] + r;
                            imageData.data[index + 1] = imageData.data[index + 1] + g;
                            imageData.data[index + 2] = imageData.data[index + 2] + b;
                            imageData.data[index + 3] = imageData.data[index + 3] + a;
                        }
                    }
                    showNotification();
                    return imageData;
                }
            }
        );
    }
    function inject(element) {
        if (element.tagName.toUpperCase() === "IFRAME" &amp;&amp; element.contentWindow) {
            try {
                var hasAccess = element.contentWindow.HTMLCanvasElement;
            } catch (e) {
                console.log("can't access " + e);
                return;
            }
            overrideCanvasProto(element.contentWindow.HTMLCanvasElement);
            overrideCanvaRendProto(element.contentWindow.CanvasRenderingContext2D);
            overrideDocumentProto(element.contentWindow.Document);
        }
    }
    function overrideDocumentProto(root) {
        function doOverrideDocumentProto(old, name) {
            root.prototype[storedObjectPrefix + name] = old;
            Object.defineProperty(root.prototype, name,
                {
                    value: function () {
                        var element = old.apply(this, arguments);
                        // console.log(name+ " everridden call"+element);
                        if (element == null) {
                            return null;
                        }
                        if (Object.prototype.toString.call(element) === '[object HTMLCollection]' ||
                            Object.prototype.toString.call(element) === '[object NodeList]') {
                            for (var i = 0; i &lt; element.length; ++i) {
                                var el = element[i];
                                // console.log("elements list inject " + name);
                                inject(el);
                            }
                        } else {
                            // console.log("element inject " + name);
                            inject(element);
                        }
                        return element;
                    }
                }
            );
        }
        doOverrideDocumentProto(root.prototype.createElement, "createElement");
        doOverrideDocumentProto(root.prototype.createElementNS, "createElementNS");
        doOverrideDocumentProto(root.prototype.getElementById, "getElementById");
        doOverrideDocumentProto(root.prototype.getElementsByName, "getElementsByName");
        doOverrideDocumentProto(root.prototype.getElementsByClassName, "getElementsByClassName");
        doOverrideDocumentProto(root.prototype.getElementsByTagName, "getElementsByTagName");
        doOverrideDocumentProto(root.prototype.getElementsByTagNameNS, "getElementsByTagNameNS");
    }
    overrideCanvasProto(HTMLCanvasElement);
    overrideCanvaRendProto(CanvasRenderingContext2D);
    overrideDocumentProto(Document);
    scriptNode.parentNode.removeChild(scriptNode);
})(22,28,21,-8,"figby", "lfbdz");} catch (e) {console.error(e);}</script><path d="M224.1 141c-63.6 0-114.9 51.3-114.9 114.9s51.3 114.9 114.9 114.9S339 319.5 339 255.9 287.7 141 224.1 141zm0 189.6c-41.1 0-74.7-33.5-74.7-74.7s33.5-74.7 74.7-74.7 74.7 33.5 74.7 74.7-33.6 74.7-74.7 74.7zm146.4-194.3c0 14.9-12 26.8-26.8 26.8-14.9 0-26.8-12-26.8-26.8s12-26.8 26.8-26.8 26.8 12 26.8 26.8zm76.1 27.2c-1.7-35.9-9.9-67.7-36.2-93.9-26.2-26.2-58-34.4-93.9-36.2-37-2.1-147.9-2.1-184.9 0-35.8 1.7-67.6 9.9-93.9 36.1s-34.4 58-36.2 93.9c-2.1 37-2.1 147.9 0 184.9 1.7 35.9 9.9 67.7 36.2 93.9s58 34.4 93.9 36.2c37 2.1 147.9 2.1 184.9 0 35.9-1.7 67.7-9.9 93.9-36.2 26.2-26.2 34.4-58 36.2-93.9 2.1-37 2.1-147.8 0-184.8zM398.8 388c-7.8 19.6-22.9 34.7-42.6 42.6-29.5 11.7-99.5 9-132.1 9s-102.7 2.6-132.1-9c-19.6-7.8-34.7-22.9-42.6-42.6-11.7-29.5-9-99.5-9-132.1s-2.6-102.7 9-132.1c7.8-19.6 22.9-34.7 42.6-42.6 29.5-11.7 99.5-9 132.1-9s102.7-2.6 132.1 9c19.6 7.8 34.7 22.9 42.6 42.6 11.7 29.5 9 99.5 9 132.1s2.7 102.7-9 132.1z"/></svg>